# xmcd
#
# Track frame offsets:
#	180
#	12344
#	24671
#	40475
#	65589
#	82254
#	101181
#	119381
#	133814
#	149127
#	171784
#	192269
#
# Disc length: 2683 seconds
#
# Revision: 0
# Processed by: cddbd v1.5.1PL0 Copyright (c) Steve Scherf et al.
# Submitted via: dBpowerAMP V4.0
#
DISCID=ba0a790c
DTITLE=Talkin' Turkey - Talkin' Turkey
DYEAR=1995
DGENRE=Blues
TTITLE0=Intro
TTITLE1=Get Off
TTITLE2=Get Goin'
TTITLE3=Keep On Flyin'
TTITLE4=She Doesn't Want That
TTITLE5=Friday Night
TTITLE6=Born In Virginia
TTITLE7=Blind Man
TTITLE8=If I Could
TTITLE9=Maybe
TTITLE10=Close Your Eyes
TTITLE11=Finale
EXTD=
EXTT0=
EXTT1=
EXTT2=
EXTT3=
EXTT4=
EXTT5=
EXTT6=
EXTT7=
EXTT8=
EXTT9=
EXTT10=
EXTT11=
PLAYORDER=
